<?xml version="1.0" encoding="utf-8"?>
<!-- Generator: Adobe Illustrator 19.1.0, SVG Export Plug-In . SVG Version: 6.00 Build 0)  -->
<svg version="1.1" id="Layer_1" xmlns="http://www.w3.org/2000/svg" xmlns:xlink="http://www.w3.org/1999/xlink" x="0px" y="0px"
	 viewBox="0 0 576.5 182.1" style="enable-background:new 0 0 576.5 182.1;" xml:space="preserve">
<style type="text/css">
	.st0{fill:none;stroke:#FFFFFF;stroke-width:2;}
	.st1{fill:none;stroke:#FFFFFF;stroke-width:1.4;}
</style>
<path class="st0" d="M215.2,41.4H95.6"/>
<path class="st0" d="M363.9,41.4h121.2"/>
<line class="st0" x1="95.6" y1="149" x2="483.8" y2="149"/>
<g>
	<path class="st0" d="M51.8,117.1h7V74.7h-7v-8.2h25.4c4.7,0,8.4,0.2,12.2,1.4c11.4,3.4,19,13.5,19,28c0,13.9-7,23.9-18.2,27.6
		c-4,1.4-8.1,1.7-13,1.7H51.8V117.1z M76.8,116.5c3.7,0,6.7-0.3,9.6-1.5c6.7-2.7,10.9-9.6,10.9-19.2c0-9.9-4.5-16.7-11.3-19.4
		c-3-1.2-5.7-1.3-9.2-1.3h-7.1v41.4H76.8z"/>
	<path class="st0" d="M134.9,82c12.9,0,23.2,9.2,23.2,22.1c0,13-10.3,22.1-23.2,22.1c-12.9,0-23.2-9.1-23.2-22.1
		C111.8,91.2,122.1,82,134.9,82z M135,117.3c6.8,0,12.5-5.3,12.5-13.2c0-7.8-5.7-13.2-12.5-13.2c-6.9,0-12.6,5.4-12.6,13.2
		C122.4,112,128.1,117.3,135,117.3z"/>
	<path class="st0" d="M161.5,117.3h6.1V92.6c0-1.2-0.7-1.7-1.8-1.7h-4.7V83h11c3.7,0,5.5,1.7,5.5,4.7v1.9c0,0.9-0.2,1.8-0.2,1.8h0.2
		c2.2-4.3,7.4-9.4,14.4-9.4c5.9,0,10.1,2.7,11.7,9.2h0.2c2.3-5,7.9-9.2,14.6-9.2c8.5,0,13.6,5,13.6,16v19.3h6.1v7.9h-16.6v-25.1
		c0-4.8-0.9-8.4-5.8-8.4c-7.2,0-10.8,7.2-10.8,15v10.8h6.1v7.9h-16.5v-25.1c0-4.5-0.7-8.4-5.7-8.4c-7.4,0-10.8,7.9-10.8,15.5v10.3h6
		v7.9h-22.7V117.3z"/>
	<path class="st0" d="M240.6,117.3h6.1V90.9h-6.5V83h17v34.3h6v7.9h-22.7V117.3z M246.7,66.5h10.6v9.3h-10.6V66.5z"/>
	<path class="st0" d="M266.3,117.3h6.1V92.7c0-1.2-0.7-1.8-1.8-1.8h-4.7V83H277c3.7,0,5.5,1.7,5.5,4.7v1.9c0,0.9-0.2,1.8-0.2,1.8
		h0.2c0.5-1.3,5-9.4,15.6-9.4c9,0,14.1,4.9,14.1,16v19.3h6.1v7.9h-16.5v-25c0-5.1-1.4-8.6-6.7-8.6c-7.6,0-12.1,7.3-12.1,14.6v11.1h6
		v7.9h-22.7V117.3z"/>
	<path class="st0" d="M320.6,117.3h6.1V90.9h-6.5V83h17v34.3h6v7.9h-22.7V117.3z M326.7,66.5h10.6v9.3h-10.6V66.5z"/>
	<path class="st0" d="M367.9,82c7,0,17.3,2.6,17.3,10.1v5.8h-9.1v-2.8c0-2.8-4.3-4.1-7.9-4.1c-7.7,0-12.4,5.3-12.4,13
		c0,8.7,6,13.4,13.2,13.4c6,0,10.8-3.3,13.2-5.1l3.7,7.4c-2.9,2.7-9.4,6.5-17.5,6.5c-12.3,0-23.2-8.4-23.2-22
		C345.3,91.6,355,82,367.9,82z"/>
	<path class="st0" d="M406.9,117.1h7V75.2h-7v-8.7h25v8.7h-7.1v41.4h17.4v-9.1h9.3v17.8h-44.5V117.1z"/>
	<path class="st0" d="M454,117.3h6.1V90.9h-6.5V83h17v34.3h6v7.9H454V117.3z M460,66.5h10.6v9.3H460V66.5z"/>
	<path class="st0" d="M483.7,90.9h-6.5V83h17v25.3c0,5,1.3,8.5,6.6,8.5c7.3,0,11.7-7.4,11.7-15.1V90.9H506V83h17v32.6
		c0,1.2,0.7,1.8,1.8,1.8h4.1v7.8h-10.4c-3.7,0-5.5-1.7-5.5-4.7v-1.6c0-1.1,0.1-2,0.1-2h-0.2c-0.5,1.4-4.8,9.3-15.4,9.3
		c-8.4,0-13.8-4.5-13.8-16V90.9z"/>
</g>
<g>
	<path class="st1" d="M236,52.2h3V34.3h-3v-3.5h10.5v3.5h-3v7.2h11.3v-7.2h-3v-3.5h10.5v3.5h-3v17.9h3v3.4h-10.5v-3.4h3v-7.1h-11.3
		v7.1h3v3.4H236V52.2z"/>
	<path class="st1" d="M264.2,52.3h2.6V41.2H264v-3.3h7.2v14.5h2.5v3.3h-9.6V52.3z M266.7,30.9h4.5v3.9h-4.5V30.9z"/>
	<path class="st1" d="M276.4,51.1h4.4l-3.5,8.7h-3.4L276.4,51.1z"/>
	<path class="st1" d="M290.6,52.2h3V34.3h-3v-3.5h10.5v3.5h-3v17.9h3v3.4h-10.5V52.2z"/>
	<path class="st1" d="M304.8,30.5h4l-2.7,8.1h-3.1L304.8,30.5z"/>
	<path class="st1" d="M309.8,52.3h2.6V41.9c0-0.5-0.3-0.7-0.8-0.7h-2v-3.3h4.6c1.6,0,2.3,0.7,2.3,2v0.8c0,0.4-0.1,0.8-0.1,0.8h0.1
		c0.9-1.8,3.1-4,6.1-4c2.5,0,4.3,1.2,5,3.9h0.1c1-2.1,3.3-3.9,6.2-3.9c3.6,0,5.7,2.1,5.7,6.8v8.1h2.6v3.3h-7V45c0-2-0.4-3.6-2.4-3.6
		c-3,0-4.5,3-4.5,6.3v4.5h2.6v3.3h-7V45c0-1.9-0.3-3.6-2.4-3.6c-3.1,0-4.6,3.3-4.6,6.5v4.3h2.5v3.3h-9.6V52.3z"/>
</g>
</svg>
